<?xml version="1.0"?>
<svg xmlns="http://www.w3.org/2000/svg" xmlns:xlink="http://www.w3.org/1999/xlink" viewBox="0 0 64 64" width="512" height="512"><defs><linearGradient id="New_Gradient_Swatch_copy" x1="32" y1="62.835" x2="32" y2="0.97" gradientUnits="userSpaceOnUse"><stop offset="0" stop-color="#e93e3a"/><stop offset="0.36" stop-color="#ed683c"/><stop offset="0.716" stop-color="#f3903f"/><stop offset="1" stop-color="#fdc70c"/></linearGradient><linearGradient id="New_Gradient_Swatch_copy-2" x1="19" y1="62.835" x2="19" y2="0.97" xlink:href="#New_Gradient_Swatch_copy"/><linearGradient id="New_Gradient_Swatch_copy-3" x1="44" y1="62.835" x2="44" y2="0.97" xlink:href="#New_Gradient_Swatch_copy"/><linearGradient id="New_Gradient_Swatch_copy-4" x1="34" y1="62.835" x2="34" y2="0.97" xlink:href="#New_Gradient_Swatch_copy"/><linearGradient id="New_Gradient_Swatch_copy-5" x1="30" y1="62.835" x2="30" y2="0.97" xlink:href="#New_Gradient_Swatch_copy"/><linearGradient id="New_Gradient_Swatch_copy-6" x1="26" y1="62.835" x2="26" y2="0.97" xlink:href="#New_Gradient_Swatch_copy"/><linearGradient id="New_Gradient_Swatch_copy-7" x1="22" y1="62.835" x2="22" y2="0.97" xlink:href="#New_Gradient_Swatch_copy"/><linearGradient id="New_Gradient_Swatch_copy-8" x1="18" y1="62.835" x2="18" y2="0.97" xlink:href="#New_Gradient_Swatch_copy"/><linearGradient id="New_Gradient_Swatch_copy-9" x1="14" y1="62.835" x2="14" y2="0.97" xlink:href="#New_Gradient_Swatch_copy"/><linearGradient id="New_Gradient_Swatch_copy-10" x1="20" y1="62.835" x2="20" y2="0.97" xlink:href="#New_Gradient_Swatch_copy"/></defs><g id="Credit_Card" data-name="Credit Card"><path d="M54,8H48V7a4.985,4.985,0,0,0-9-2.969,4.954,4.954,0,0,0-8,0,4.954,4.954,0,0,0-8,0A4.985,4.985,0,0,0,14,7V8H10a3,3,0,0,0-3,3V39a3,3,0,0,0,3,3h5v3a1,1,0,0,0,.105.447L17,49.236V52H16a1,1,0,0,0-1,1v8a1,1,0,0,0,1,1H50a1,1,0,0,0,1-1V53a1,1,0,0,0-1-1H49V49.236l1.9-3.789A1,1,0,0,0,51,45V42h3a3,3,0,0,0,3-3V11A3,3,0,0,0,54,8ZM43,4a3,3,0,0,1,3,3V8H40V7A3,3,0,0,1,43,4ZM35,4a3,3,0,0,1,3,3V8H32V7A3,3,0,0,1,35,4ZM27,4a3,3,0,0,1,3,3V8H24V7A3,3,0,0,1,27,4ZM16,7a3,3,0,0,1,6,0V8H16ZM49,60H17V54H49ZM19,52V50H47v2Zm30-7.236L47.382,48H18.618L17,44.764V42H37V41a5.006,5.006,0,0,1,5-5,1,1,0,0,0,1-1V27a3,3,0,0,1,6,0ZM55,39a1,1,0,0,1-1,1H51V27a5,5,0,0,0-10,0v7.071A7.011,7.011,0,0,0,35.079,40H10a1,1,0,0,1-1-1V11a1,1,0,0,1,1-1H54a1,1,0,0,1,1,1Z" style="fill:url(#New_Gradient_Swatch_copy)"/><path d="M15,22h8a2,2,0,0,0,2-2V14a2,2,0,0,0-2-2H15a2,2,0,0,0-2,2v6A2,2,0,0,0,15,22Zm0-8h8v6H15Z" style="fill:url(#New_Gradient_Swatch_copy-2)"/><path d="M47,12a4.99,4.99,0,0,0-3.011,1.016A4.955,4.955,0,0,0,41,12a5,5,0,0,0,0,10,4.955,4.955,0,0,0,2.989-1.016A5,5,0,1,0,47,12Zm-6,8a3,3,0,1,1,3-3A3,3,0,0,1,41,20Zm6,0a2.974,2.974,0,0,1-1.679-.53,4.832,4.832,0,0,0,0-4.94A2.994,2.994,0,1,1,47,20Z" style="fill:url(#New_Gradient_Swatch_copy-3)"/><rect x="33" y="25" width="2" height="4" style="fill:url(#New_Gradient_Swatch_copy-4)"/><rect x="29" y="25" width="2" height="4" style="fill:url(#New_Gradient_Swatch_copy-5)"/><rect x="25" y="25" width="2" height="4" style="fill:url(#New_Gradient_Swatch_copy-6)"/><rect x="21" y="25" width="2" height="4" style="fill:url(#New_Gradient_Swatch_copy-7)"/><rect x="17" y="25" width="2" height="4" style="fill:url(#New_Gradient_Swatch_copy-8)"/><rect x="13" y="25" width="2" height="4" style="fill:url(#New_Gradient_Swatch_copy-9)"/><rect x="13" y="32" width="14" height="2" style="fill:url(#New_Gradient_Swatch_copy-10)"/><rect x="13" y="36" width="2" height="2" style="fill:url(#New_Gradient_Swatch_copy-9)"/><rect x="17" y="36" width="2" height="2" style="fill:url(#New_Gradient_Swatch_copy-8)"/><rect x="21" y="36" width="2" height="2" style="fill:url(#New_Gradient_Swatch_copy-7)"/><rect x="25" y="36" width="2" height="2" style="fill:url(#New_Gradient_Swatch_copy-6)"/></g></svg>
